<svg width="320" height="320" viewBox="0 0 320 320" fill="none" xmlns="http://www.w3.org/2000/svg">
<path d="M142.485 0.961532C117.857 3.67386 94.1944 12.0691 73.3636 25.4856C52.5327 38.9021 35.1025 56.9732 22.4465 78.2746C9.79053 99.5761 2.25474 123.526 0.433032 148.236C-1.38868 172.947 2.55348 197.743 11.9488 220.67C21.3441 243.597 35.9359 264.029 54.5741 280.355C73.2122 296.681 95.3875 308.456 119.352 314.751C143.317 321.045 168.416 321.688 192.671 316.629C216.927 311.569 239.676 300.946 259.125 285.595L250.77 275.008C232.959 289.065 212.128 298.793 189.917 303.426C167.706 308.059 144.723 307.47 122.779 301.706C100.834 295.942 80.528 285.16 63.461 270.21C46.3939 255.26 33.0322 236.55 24.4289 215.556C15.8255 194.561 12.2157 171.856 13.8838 149.228C15.552 126.6 22.4525 104.67 34.0416 85.1637C45.6308 65.6579 61.5917 49.1101 80.6666 36.8245C99.7416 24.539 121.409 16.8514 143.962 14.3678L142.485 0.961532Z" fill="#FD4444"/>
<path d="M128.219 281.165C149.474 286.74 171.821 286.625 193.018 280.833C214.214 275.041 233.514 263.776 248.98 248.167C264.447 232.558 275.535 213.155 281.132 191.906C286.729 170.657 286.637 148.31 280.867 127.108C275.097 105.905 263.852 86.5933 248.259 71.111C232.666 55.6287 213.275 44.5205 192.032 38.9016C170.789 33.2826 148.441 33.3505 127.233 39.0986C106.024 44.8466 86.7009 56.0724 71.2024 71.6493L78.2414 78.6528C92.5113 64.3107 110.303 53.9747 129.83 48.6824C149.357 43.39 169.933 43.3274 189.492 48.501C209.052 53.6745 226.906 63.9022 241.263 78.1572C255.619 92.4122 265.974 110.193 271.286 129.715C276.599 149.237 276.683 169.813 271.53 189.377C266.376 208.941 256.167 226.806 241.927 241.178C227.687 255.549 209.917 265.922 190.4 271.255C170.884 276.588 150.308 276.693 130.738 271.56L128.219 281.165Z" fill="#FFDC26"/>
<path d="M160 55.7895C144.44 55.7895 129.077 59.2741 115.039 65.9877C101.001 72.7012 88.645 82.4731 78.8775 94.5861C69.1101 106.699 62.1792 120.846 58.5937 135.988C55.0082 151.129 54.8591 166.882 58.1574 182.089L66.2304 180.338C63.1936 166.336 63.3309 151.833 66.6321 137.891C69.9334 123.95 76.3149 110.924 85.3081 99.7715C94.3013 88.6186 105.678 79.6213 118.603 73.44C131.528 67.2586 145.673 64.0502 160 64.0502L160 55.7895Z" fill="#91FF76"/>
</svg>
